ffmpeg started on 2025-06-19 at 11:56:36
Report written to "D:\Convert\FFMetrics\reports\psnr_report-6.txt"
Log level: 32
Command line:
ffmpeg -hide_banner -nostdin -i "G:\\\xc0\xed\xe8\xec\xe5\\[\xd2\xee\xef-4]\\Fate\\\xc0\xef\xee\xea\xf0\xe8\xf4\\Fate_Apocrypha_[12]_[AniLibria_TV]_[HDTVRip_720p]_HEVC.mkv" -i "G:\\\xc0\xed\xe8\xec\xe5\\[\xd2\xee\xef-4]\\Fate\\\xc0\xef\xee\xea\xf0\xe8\xf4\\Fate_Apocrypha_[12]_[AniLibria_TV]_[HDTVRip_720p].mkv" -lavfi "[0:v]settb=AVTB,setpts=PTS-STARTPTS,format=pix_fmts=yuv420p10,fps=24000/1001,scale=1280:720:flags=bicubic[main];[1:v]settb=AVTB,setpts=PTS-STARTPTS,format=pix_fmts=yuv420p,fps=24000/1001,scale=1280:720:flags=bicubic[ref];[main][ref]psnr=eof_action=endall:stats_file='D\\:/Convert/FFMetrics/logs/psnr_logfile-6.txt'" -f null -
Input #0, matroska,webm, from 'G:\Аниме\[Топ-4]\Fate\Апокриф\Fate_Apocrypha_[12]_[AniLibria_TV]_[HDTVRip_720p]_HEVC.mkv':
  Metadata:
    ENCODER         : Lavf61.7.100
  Duration: 00:24:00.11, start: -0.021000, bitrate: 656 kb/s
  Stream #0:0(jpn): Video: hevc (Main 10), yuv420p10le(tv, bt709, progressive), 1280x720 [SAR 1:1 DAR 16:9], 23.81 fps, 23.81 tbr, 1k tbn (default)
      Metadata:
        ENCODER         : Lavc61.19.100 libx265
        BPS             : 457026
        DURATION        : 00:24:00.012000000
        NUMBER_OF_FRAMES: 34525
        NUMBER_OF_BYTES : 82265423
        _STATISTICS_WRITING_APP: mkvpropedit v66.0.0 ('Josie') 64-bit
        _STATISTICS_WRITING_DATE_UTC: 2025-06-16 16:37:54
        _STATISTICS_TAGS: BPS DURATION NUMBER_OF_FRAMES NUMBER_OF_BYTES
  Stream #0:1(rus): Audio: aac (LC), 48000 Hz, stereo, fltp (default)
      Metadata:
        title           : Ados Amikiri Anzen Hekomi Silv
        ENCODER         : Lavc61.19.100 aac
        BPS             : 194476
        DURATION        : 00:24:00.085000000
        NUMBER_OF_FRAMES: 67505
        NUMBER_OF_BYTES : 35007860
        _STATISTICS_WRITING_APP: mkvpropedit v66.0.0 ('Josie') 64-bit
        _STATISTICS_WRITING_DATE_UTC: 2025-06-16 16:37:54
        _STATISTICS_TAGS: BPS DURATION NUMBER_OF_FRAMES NUMBER_OF_BYTES
  Stream #0:2(rus): Subtitle: ass (ssa) (default) (forced)
      Metadata:
        title           : Надписи
        BPS             : 167
        DURATION        : 00:22:11.630000000
        NUMBER_OF_FRAMES: 188
        NUMBER_OF_BYTES : 27842
        _STATISTICS_WRITING_APP: mkvpropedit v66.0.0 ('Josie') 64-bit
        _STATISTICS_WRITING_DATE_UTC: 2025-06-16 16:37:54
        _STATISTICS_TAGS: BPS DURATION NUMBER_OF_FRAMES NUMBER_OF_BYTES
  Stream #0:3(rus): Subtitle: ass (ssa)
      Metadata:
        title           : Полные
        BPS             : 273
        DURATION        : 00:23:23.260000000
        NUMBER_OF_FRAMES: 411
        NUMBER_OF_BYTES : 48055
        _STATISTICS_WRITING_APP: mkvpropedit v66.0.0 ('Josie') 64-bit
        _STATISTICS_WRITING_DATE_UTC: 2025-06-16 16:37:54
        _STATISTICS_TAGS: BPS DURATION NUMBER_OF_FRAMES NUMBER_OF_BYTES
Input #1, matroska,webm, from 'G:\Аниме\[Топ-4]\Fate\Апокриф\Fate_Apocrypha_[12]_[AniLibria_TV]_[HDTVRip_720p].mkv':
  Metadata:
    encoder         : libebml v1.3.0 + libmatroska v1.4.1
    creation_time   : 2017-09-18T20:40:36.000000Z
  Duration: 00:24:00.09, start: 0.000000, bitrate: 2396 kb/s
  Stream #1:0: Video: h264 (Main), yuv420p(tv, bt709, progressive), 1280x720, SAR 1:1 DAR 16:9, 23.81 fps, 23.81 tbr, 1k tbn (default)
      Metadata:
        BPS             : 1979749
        BPS-eng         : 1979749
        DURATION        : 00:24:00.007000000
        DURATION-eng    : 00:24:00.007000000
        NUMBER_OF_FRAMES: 34525
        NUMBER_OF_FRAMES-eng: 34525
        NUMBER_OF_BYTES : 356356670
        NUMBER_OF_BYTES-eng: 356356670
        _STATISTICS_WRITING_APP: mkvmerge v7.3.0 ('Nouages') 64bit built on Oct 22 2014 18:53:34
        _STATISTICS_WRITING_APP-eng: mkvmerge v7.3.0 ('Nouages') 64bit built on Oct 22 2014 18:53:34
        _STATISTICS_WRITING_DATE_UTC: 2017-09-18 20:40:36
        _STATISTICS_WRITING_DATE_UTC-eng: 2017-09-18 20:40:36
        _STATISTICS_TAGS: BPS DURATION NUMBER_OF_FRAMES NUMBER_OF_BYTES
        _STATISTICS_TAGS-eng: BPS DURATION NUMBER_OF_FRAMES NUMBER_OF_BYTES
  Stream #1:1(rus): Audio: aac (LC), 48000 Hz, stereo, fltp (default)
      Metadata:
        title           : Ados Amikiri Anzen Hekomi Silv
        BPS             : 192091
        BPS-eng         : 192091
        DURATION        : 00:24:00.085000000
        DURATION-eng    : 00:24:00.085000000
        NUMBER_OF_FRAMES: 67504
        NUMBER_OF_FRAMES-eng: 67504
        NUMBER_OF_BYTES : 34578575
        NUMBER_OF_BYTES-eng: 34578575
        _STATISTICS_WRITING_APP: mkvmerge v7.3.0 ('Nouages') 64bit built on Oct 22 2014 18:53:34
        _STATISTICS_WRITING_APP-eng: mkvmerge v7.3.0 ('Nouages') 64bit built on Oct 22 2014 18:53:34
        _STATISTICS_WRITING_DATE_UTC: 2017-09-18 20:40:36
        _STATISTICS_WRITING_DATE_UTC-eng: 2017-09-18 20:40:36
        _STATISTICS_TAGS: BPS DURATION NUMBER_OF_FRAMES NUMBER_OF_BYTES
        _STATISTICS_TAGS-eng: BPS DURATION NUMBER_OF_FRAMES NUMBER_OF_BYTES
  Stream #1:2(jpn): Audio: aac (LC), 48000 Hz, stereo, fltp
      Metadata:
        title           : Оригинал
        BPS             : 218995
        BPS-eng         : 218995
        DURATION        : 00:24:00.063000000
        DURATION-eng    : 00:24:00.063000000
        NUMBER_OF_FRAMES: 67503
        NUMBER_OF_FRAMES-eng: 67503
        NUMBER_OF_BYTES : 39420891
        NUMBER_OF_BYTES-eng: 39420891
        _STATISTICS_WRITING_APP: mkvmerge v7.3.0 ('Nouages') 64bit built on Oct 22 2014 18:53:34
        _STATISTICS_WRITING_APP-eng: mkvmerge v7.3.0 ('Nouages') 64bit built on Oct 22 2014 18:53:34
        _STATISTICS_WRITING_DATE_UTC: 2017-09-18 20:40:36
        _STATISTICS_WRITING_DATE_UTC-eng: 2017-09-18 20:40:36
        _STATISTICS_TAGS: BPS DURATION NUMBER_OF_FRAMES NUMBER_OF_BYTES
        _STATISTICS_TAGS-eng: BPS DURATION NUMBER_OF_FRAMES NUMBER_OF_BYTES
  Stream #1:3(rus): Subtitle: ass (ssa) (default) (forced)
      Metadata:
        title           : Надписи
        BPS             : 167
        BPS-eng         : 167
        DURATION        : 00:22:11.630000000
        DURATION-eng    : 00:22:11.630000000
        NUMBER_OF_FRAMES: 188
        NUMBER_OF_FRAMES-eng: 188
        NUMBER_OF_BYTES : 27842
        NUMBER_OF_BYTES-eng: 27842
        _STATISTICS_WRITING_APP: mkvmerge v7.3.0 ('Nouages') 64bit built on Oct 22 2014 18:53:34
        _STATISTICS_WRITING_APP-eng: mkvmerge v7.3.0 ('Nouages') 64bit built on Oct 22 2014 18:53:34
        _STATISTICS_WRITING_DATE_UTC: 2017-09-18 20:40:36
        _STATISTICS_WRITING_DATE_UTC-eng: 2017-09-18 20:40:36
        _STATISTICS_TAGS: BPS DURATION NUMBER_OF_FRAMES NUMBER_OF_BYTES
        _STATISTICS_TAGS-eng: BPS DURATION NUMBER_OF_FRAMES NUMBER_OF_BYTES
  Stream #1:4(rus): Subtitle: ass (ssa)
      Metadata:
        title           : Полные
        BPS             : 273
        BPS-eng         : 273
        DURATION        : 00:23:23.260000000
        DURATION-eng    : 00:23:23.260000000
        NUMBER_OF_FRAMES: 411
        NUMBER_OF_FRAMES-eng: 411
        NUMBER_OF_BYTES : 48055
        NUMBER_OF_BYTES-eng: 48055
        _STATISTICS_WRITING_APP: mkvmerge v7.3.0 ('Nouages') 64bit built on Oct 22 2014 18:53:34
        _STATISTICS_WRITING_APP-eng: mkvmerge v7.3.0 ('Nouages') 64bit built on Oct 22 2014 18:53:34
        _STATISTICS_WRITING_DATE_UTC: 2017-09-18 20:40:36
        _STATISTICS_WRITING_DATE_UTC-eng: 2017-09-18 20:40:36
        _STATISTICS_TAGS: BPS DURATION NUMBER_OF_FRAMES NUMBER_OF_BYTES
        _STATISTICS_TAGS-eng: BPS DURATION NUMBER_OF_FRAMES NUMBER_OF_BYTES
  Stream #1:5: Attachment: ttf
      Metadata:
        filename        : ALBR.ttf
        mimetype        : application/x-truetype-font
  Stream #1:6: Attachment: ttf
      Metadata:
        filename        : 9511(1).ttf
        mimetype        : application/x-truetype-font
Stream mapping:
  Stream #0:0 (hevc) -> settb:default
  Stream #1:0 (h264) -> settb:default
  psnr:default -> Stream #0:0 (wrapped_avframe)
  Stream #0:1 -> #0:1 (aac (native) -> pcm_s16le (native))
Output #0, null, to 'pipe:':
  Metadata:
    encoder         : Lavf61.7.100
  Stream #0:0: Video: wrapped_avframe, yuv420p10le(tv, bt709, progressive), 1280x720 [SAR 1:1 DAR 16:9], q=2-31, 200 kb/s, 23.98 fps, 23.98 tbn
      Metadata:
        encoder         : Lavc61.19.100 wrapped_avframe
  Stream #0:1(rus): Audio: pcm_s16le, 48000 Hz, stereo, s16, 1536 kb/s (default)
      Metadata:
        title           : Ados Amikiri Anzen Hekomi Silv
        _STATISTICS_TAGS: BPS DURATION NUMBER_OF_FRAMES NUMBER_OF_BYTES
        BPS             : 194476
        DURATION        : 00:24:00.085000000
        NUMBER_OF_FRAMES: 67505
        NUMBER_OF_BYTES : 35007860
        _STATISTICS_WRITING_APP: mkvpropedit v66.0.0 ('Josie') 64-bit
        _STATISTICS_WRITING_DATE_UTC: 2025-06-16 16:37:54
        encoder         : Lavc61.19.100 pcm_s16le
frame=  522 fps=0.0 q=-0.0 size=N/A time=00:00:21.77 bitrate=N/A speed=  42x    frame= 1068 fps=1040 q=-0.0 size=N/A time=00:00:44.54 bitrate=N/A speed=43.4x    frame= 1610 fps=1037 q=-0.0 size=N/A time=00:01:07.15 bitrate=N/A speed=43.3x    frame= 2162 fps=1050 q=-0.0 size=N/A time=00:01:30.17 bitrate=N/A speed=43.8x    frame= 2569 fps=995 q=-0.0 size=N/A time=00:01:47.14 bitrate=N/A speed=41.5x    frame= 3036 fps=983 q=-0.0 size=N/A time=00:02:06.62 bitrate=N/A speed=  41x    frame= 3540 fps=980 q=-0.0 size=N/A time=00:02:27.64 bitrate=N/A speed=40.9x    frame= 3940 fps=957 q=-0.0 size=N/A time=00:02:44.33 bitrate=N/A speed=39.9x    frame= 4303 fps=926 q=-0.0 size=N/A time=00:02:59.47 bitrate=N/A speed=38.6x    frame= 4761 fps=924 q=-0.0 size=N/A time=00:03:18.57 bitrate=N/A speed=38.5x    frame= 5214 fps=918 q=-0.0 size=N/A time=00:03:37.46 bitrate=N/A speed=38.3x    frame= 5828 fps=942 q=-0.0 size=N/A time=00:04:03.07 bitrate=N/A speed=39.3x    frame= 6458 fps=964 q=-0.0 size=N/A time=00:04:29.35 bitrate=N/A speed=40.2x    frame= 7009 fps=970 q=-0.0 size=N/A time=00:04:52.33 bitrate=N/A speed=40.5x    frame= 7603 fps=983 q=-0.0 size=N/A time=00:05:17.10 bitrate=N/A speed=  41x    frame= 8222 fps=997 q=-0.0 size=N/A time=00:05:42.92 bitrate=N/A speed=41.6x    frame= 8833 fps=1007 q=-0.0 size=N/A time=00:06:08.40 bitrate=N/A speed=  42x    frame= 9342 fps=1006 q=-0.0 size=N/A time=00:06:29.63 bitrate=N/A speed=  42x    frame= 9772 fps=998 q=-0.0 size=N/A time=00:06:47.57 bitrate=N/A speed=41.6x    frame=10312 fps=1000 q=-0.0 size=N/A time=00:07:10.09 bitrate=N/A speed=41.7x    frame=10834 fps=1001 q=-0.0 size=N/A time=00:07:31.86 bitrate=N/A speed=41.7x    frame=11400 fps=1006 q=-0.0 size=N/A time=00:07:55.47 bitrate=N/A speed=41.9x    frame=11947 fps=1007 q=-0.0 size=N/A time=00:08:18.28 bitrate=N/A speed=  42x    frame=12482 fps=1009 q=-0.0 size=N/A time=00:08:40.60 bitrate=N/A speed=42.1x    frame=12959 fps=1005 q=-0.0 size=N/A time=00:09:00.49 bitrate=N/A speed=41.9x    frame=13392 fps=999 q=-0.0 size=N/A time=00:09:18.55 bitrate=N/A speed=41.7x    frame=13924 fps=1000 q=-0.0 size=N/A time=00:09:40.74 bitrate=N/A speed=41.7x    frame=14481 fps=1003 q=-0.0 size=N/A time=00:10:03.97 bitrate=N/A speed=41.8x    frame=15011 fps=1004 q=-0.0 size=N/A time=00:10:26.08 bitrate=N/A speed=41.9x    frame=15555 fps=1006 q=-0.0 size=N/A time=00:10:48.77 bitrate=N/A speed=  42x    frame=15976 fps=999 q=-0.0 size=N/A time=00:11:06.33 bitrate=N/A speed=41.7x    frame=16536 fps=1002 q=-0.0 size=N/A time=00:11:29.68 bitrate=N/A speed=41.8x    frame=17104 fps=1006 q=-0.0 size=N/A time=00:11:53.37 bitrate=N/A speed=41.9x    frame=17616 fps=1005 q=-0.0 size=N/A time=00:12:14.73 bitrate=N/A speed=41.9x    frame=18254 fps=1012 q=-0.0 size=N/A time=00:12:41.34 bitrate=N/A speed=42.2x    frame=18944 fps=1020 q=-0.0 size=N/A time=00:13:10.12 bitrate=N/A speed=42.6x    frame=19589 fps=1027 q=-0.0 size=N/A time=00:13:37.02 bitrate=N/A speed=42.8x    frame=20031 fps=1022 q=-0.0 size=N/A time=00:13:55.45 bitrate=N/A speed=42.6x    frame=20648 fps=1027 q=-0.0 size=N/A time=00:14:21.19 bitrate=N/A speed=42.8x    frame=21211 fps=1028 q=-0.0 size=N/A time=00:14:44.67 bitrate=N/A speed=42.9x    frame=21726 fps=1027 q=-0.0 size=N/A time=00:15:06.15 bitrate=N/A speed=42.8x    frame=22128 fps=1021 q=-0.0 size=N/A time=00:15:22.92 bitrate=N/A speed=42.6x    frame=22508 fps=1015 q=-0.0 size=N/A time=00:15:38.77 bitrate=N/A speed=42.3x    frame=22968 fps=1012 q=-0.0 size=N/A time=00:15:57.95 bitrate=N/A speed=42.2x    frame=23371 fps=1007 q=-0.0 size=N/A time=00:16:14.76 bitrate=N/A speed=  42x    frame=23760 fps=1001 q=-0.0 size=N/A time=00:16:30.99 bitrate=N/A speed=41.7x    frame=24224 fps=999 q=-0.0 size=N/A time=00:16:50.38 bitrate=N/A speed=41.7x    frame=24776 fps=1000 q=-0.0 size=N/A time=00:17:13.36 bitrate=N/A speed=41.7x    frame=25239 fps=998 q=-0.0 size=N/A time=00:17:32.67 bitrate=N/A speed=41.6x    frame=25566 fps=991 q=-0.0 size=N/A time=00:17:46.31 bitrate=N/A speed=41.3x    frame=26010 fps=989 q=-0.0 size=N/A time=00:18:04.83 bitrate=N/A speed=41.2x    frame=26531 fps=989 q=-0.0 size=N/A time=00:18:26.56 bitrate=N/A speed=41.2x    frame=26677 fps=976 q=-0.0 size=N/A time=00:18:32.65 bitrate=N/A speed=40.7x    frame=27133 fps=974 q=-0.0 size=N/A time=00:18:51.67 bitrate=N/A speed=40.6x    frame=27671 fps=975 q=-0.0 size=N/A time=00:19:14.11 bitrate=N/A speed=40.7x    frame=28247 fps=978 q=-0.0 size=N/A time=00:19:38.13 bitrate=N/A speed=40.8x    frame=28775 fps=978 q=-0.0 size=N/A time=00:20:00.15 bitrate=N/A speed=40.8x    frame=29227 fps=977 q=-0.0 size=N/A time=00:20:19.00 bitrate=N/A speed=40.7x    frame=29685 fps=975 q=-0.0 size=N/A time=00:20:38.11 bitrate=N/A speed=40.7x    frame=30045 fps=971 q=-0.0 size=N/A time=00:20:53.12 bitrate=N/A speed=40.5x    frame=30602 fps=972 q=-0.0 size=N/A time=00:21:16.35 bitrate=N/A speed=40.6x    frame=31172 fps=975 q=-0.0 size=N/A time=00:21:40.13 bitrate=N/A speed=40.7x    frame=31812 fps=979 q=-0.0 size=N/A time=00:22:06.82 bitrate=N/A speed=40.8x    frame=32314 fps=979 q=-0.0 size=N/A time=00:22:27.76 bitrate=N/A speed=40.8x    frame=32638 fps=973 q=-0.0 size=N/A time=00:22:41.27 bitrate=N/A speed=40.6x    frame=33094 fps=972 q=-0.0 size=N/A time=00:23:00.29 bitrate=N/A speed=40.5x    frame=33494 fps=969 q=-0.0 size=N/A time=00:23:16.97 bitrate=N/A speed=40.4x    frame=33806 fps=963 q=-0.0 size=N/A time=00:23:29.99 bitrate=N/A speed=40.2x    frame=34159 fps=959 q=-0.0 size=N/A time=00:23:44.71 bitrate=N/A speed=  40x    [Parsed_psnr_10 @ 0000022594751f80] PSNR y:32.697988 u:41.702812 v:43.129390 average:34.230189 min:5.314044 max:63.654677
[out#0/null @ 000002258865a100] video:14835KiB audio:270020KiB subtitle:0KiB other streams:0KiB global headers:0KiB muxing overhead: unknown
frame=34526 fps=959 q=-0.0 Lsize=N/A time=00:24:00.02 bitrate=N/A speed=  40x    
